<svg xmlns="http://www.w3.org/2000/svg" width="160.019" height="160.019" viewBox="0 0 160.019 160.019">
  <path id="frown-regular" d="M57,8a57,57,0,1,0,57,57A56.99,56.99,0,0,0,57,8Zm0,102.968A45.968,45.968,0,1,1,102.968,65,46.014,46.014,0,0,1,57,110.968ZM38.613,61.323a7.355,7.355,0,1,0-7.355-7.355A7.347,7.347,0,0,0,38.613,61.323Zm36.774-14.71a7.355,7.355,0,1,0,7.355,7.355A7.347,7.347,0,0,0,75.387,46.613ZM57,76.032A30.991,30.991,0,0,0,33.143,87.2a5.516,5.516,0,0,0,8.481,7.056,19.989,19.989,0,0,1,30.752,0A5.516,5.516,0,0,0,80.857,87.2,30.991,30.991,0,0,0,57,76.032Z" transform="matrix(0.788, -0.616, 0.616, 0.788, -4.925, 63.881)" fill="#ce1414"/>
</svg>
