<svg xmlns="http://www.w3.org/2000/svg" width="158.207" height="158.207" viewBox="0 0 158.207 158.207">
  <path id="grin-beam-regular" d="M56.148,2.774A56.148,56.148,0,1,0,112.3,58.922,56.139,56.139,0,0,0,56.148,2.774Zm0,101.429a45.281,45.281,0,1,1,45.281-45.281A45.326,45.326,0,0,1,56.148,104.2ZM80.057,69.926c-5.864,1.879-14.58,2.966-23.908,2.966S38.126,71.8,32.24,69.926a3.11,3.11,0,0,0-4.007,3.464C30.021,84.053,44.375,91.5,56.148,91.5s26.1-7.449,27.916-18.112a3.118,3.118,0,0,0-4.007-3.464Zm-53.409-16.5a1.843,1.843,0,0,0,2.106-.838L30.9,48.734c1.743-3.1,4.347-4.89,7.132-4.89s5.388,1.789,7.132,4.89l2.151,3.849a1.793,1.793,0,0,0,2.106.838,1.814,1.814,0,0,0,1.29-1.879c-.747-9.532-7.29-16.165-12.679-16.165S26.1,42.01,25.357,51.542a1.831,1.831,0,0,0,1.291,1.879Zm36.225,0a1.843,1.843,0,0,0,2.106-.838l2.151-3.849c1.743-3.1,4.347-4.89,7.132-4.89s5.388,1.789,7.132,4.89l2.151,3.849a1.793,1.793,0,0,0,2.106.838,1.814,1.814,0,0,0,1.291-1.879c-.747-9.532-7.29-16.165-12.679-16.165S62.329,42.01,61.582,51.542a1.831,1.831,0,0,0,1.291,1.879Z" transform="translate(-1.783 70.058) rotate(-40)" fill="#1db53b"/>
</svg>
